<svg width="895" height="335" viewBox="0 0 410 134" fill="none" xmlns="http://www.w3.org/2000/svg">
            <path d="M294.603 60.6253L262.47 7.3711C259.764 3.35192 260.779 1.67726 262.132 1.00739C263.823 0.0025962 266.19 1.67726 268.896 5.36151L304.751 51.9171C304.751 51.9171 305.089 52.252 305.766 52.252C308.471 52.252 304.413 48.2328 306.442 45.2184C311.516 38.5198 329.105 48.2328 339.252 58.9506C353.458 72.6828 372.4 93.4486 392.695 105.841C397.431 108.855 400.475 106.176 404.534 108.521C417.049 115.889 402.504 132.971 391.681 132.636C379.165 133.64 370.709 122.923 362.929 114.214L336.208 82.0609C333.502 78.7116 331.134 77.3719 328.766 78.3767C327.413 79.0466 328.09 81.3911 328.766 82.3959C331.811 87.0849 334.855 92.1089 336.884 97.4678C350.414 129.956 329.105 142.014 299.677 128.616C281.412 120.243 265.852 104.166 256.043 87.7548C255.705 87.0849 255.367 86.75 254.69 86.75H241.837C241.16 86.75 240.484 86.4151 240.145 85.7452C239.469 84.0705 236.086 70.3383 235.748 68.6637C235.072 66.3191 233.38 65.6493 231.351 65.6493C229.66 65.6493 228.307 66.6541 228.983 69.3335L237.439 108.186C237.74 109.552 236.763 109.86 235.748 109.86H208.688C207.63 109.86 207.105 109.669 206.997 108.521L205.357 81.5351C205.018 76.8461 198.203 77.037 198.203 81.726C197.864 88.7596 197.864 93.1137 194.482 99.4774C186.364 115.554 142.053 118.234 136.303 99.4774C135.288 96.1281 135.288 92.7788 135.965 89.7644C136.303 88.0897 137.22 85.3801 137.994 83.0657C138.525 81.4815 137.656 79.3815 135.627 78.7116C133.655 78.1523 131.696 78.9762 130.749 81.0729C129.237 84.4189 127.147 90.1696 126.494 92.1089C124.464 97.4678 122.435 102.827 122.435 107.851C122.097 110.53 123.45 112.54 124.803 114.549C126.156 116.894 126.156 119.908 125.141 122.588C123.111 127.947 117.361 131.631 111.273 132.971C98.7576 135.985 85.2277 132.636 86.9189 116.894C87.5954 108.855 100.449 89.7644 104.508 81.3911C105.523 79.3815 103.493 78.3767 102.14 78.3767C100.111 78.3767 99.0959 79.7164 98.0811 80.7212C94.0221 85.0753 89.6249 91.439 83.5364 97.4678C66.624 113.879 39.5642 134.645 17.2398 133.975C-20.3057 132.301 13.1808 88.4247 26.7108 76.0322C41.5937 62.9698 57.1531 51.2472 74.742 45.2184C81.8452 42.8739 96.0516 40.5294 91.9927 51.5821C88.9484 58.6157 80.8305 67.3239 73.7272 71.0082C71.0213 72.3479 65.6093 73.6876 64.5945 71.6781C62.9033 67.9938 68.9918 63.9746 71.6978 61.2952C75.0802 58.6157 73.0508 57.276 69.33 58.6157C63.5798 60.9602 52.4176 71.0082 54.7853 77.037C56.8148 81.3911 67.977 79.7164 73.0508 77.3719C79.1392 74.6924 83.7022 71.7819 88.9484 65.6493C96.2647 57.0985 129.876 8.3759 132.244 5.36151C134.95 1.67726 136.641 0.337528 138.671 1.34232C140.024 2.01219 140.362 3.68685 137.994 8.3759L115.67 50.5773C115.332 51.5821 116.008 52.252 116.685 52.252C117.361 52.252 118.038 52.252 119.053 50.9123C125.479 43.8787 130.891 42.539 135.627 43.5438C143.068 45.2184 142.73 51.2472 141.377 54.9314C140.7 56.941 142.053 58.9506 144.083 58.9506C145.436 58.9506 146.789 57.9458 147.127 56.941L151.186 44.5486C151.524 43.8787 152.201 43.5438 152.877 43.5438H169.79C170.804 43.5438 171.819 44.5486 171.481 45.5534L166.069 73.6876C165.731 75.0274 166.069 77.7068 169.113 77.7068C171.143 77.7068 172.834 76.3671 173.172 73.6876L177.231 44.8835C177.231 44.2136 178.246 43.5438 178.922 43.5438H196.173C196.85 43.5438 197.526 44.2136 197.526 45.2184V55.8894C197.526 57.7281 199.004 59.2621 200.861 59.2822C202.576 59.3023 203.953 58.3009 203.953 55.9329L203.276 45.2151C203.276 44.2103 203.953 43.5404 204.968 43.5404H222.218C222.895 43.5404 223.571 44.2103 223.571 44.8801L224.924 51.2439C225.262 52.5836 227.292 52.5836 227.63 51.2439C228.983 45.8849 233.38 43.5404 238.454 43.5404C241.837 43.5404 245.557 44.2103 248.263 46.5548C249.278 47.2247 250.293 49.2343 251.308 48.2295C257.396 41.1959 268.558 42.5356 275.661 47.2247C279.382 49.5692 283.103 52.9185 285.471 56.6028C288.515 60.9569 292.236 68.6603 289.868 71.3398C287.5 74.6891 279.72 72.6795 275.661 65.6459C274.985 64.3062 273.97 62.2966 273.294 61.2918C271.941 59.2822 269.235 57.9425 267.882 59.9521C266.867 61.2918 267.882 63.9713 268.558 65.6459C271.941 72.6795 278.706 77.7035 285.809 79.3781C303.398 83.0624 301.707 71.0048 294.603 60.6219V60.6253Z" fill="black"></path>
        </svg>